<svg width="58" height="20" viewBox="0 0 58 20" fill="none" xmlns="http://www.w3.org/2000/svg">
<path d="M1.57386 13V7.18182H3.75568C4.20265 7.18182 4.57765 7.26515 4.88068 7.43182C5.18561 7.59848 5.41572 7.82765 5.57102 8.11932C5.72822 8.40909 5.80682 8.73864 5.80682 9.10795C5.80682 9.48106 5.72822 9.8125 5.57102 10.1023C5.41383 10.392 5.18182 10.6203 4.875 10.7869C4.56818 10.9517 4.19034 11.0341 3.74148 11.0341H2.29545V10.1676H3.59943C3.8608 10.1676 4.07481 10.1222 4.24148 10.0312C4.40814 9.94034 4.53125 9.81534 4.6108 9.65625C4.69223 9.49716 4.73295 9.31439 4.73295 9.10795C4.73295 8.90152 4.69223 8.7197 4.6108 8.5625C4.53125 8.4053 4.4072 8.28314 4.23864 8.19602C4.07197 8.10701 3.85701 8.0625 3.59375 8.0625H2.62784V13H1.57386ZM6.67685 13V8.63636H7.67401V9.36364H7.71946C7.79901 9.11174 7.93537 8.91761 8.12855 8.78125C8.32363 8.64299 8.54616 8.57386 8.79616 8.57386C8.85298 8.57386 8.91643 8.5767 8.98651 8.58239C9.05848 8.58617 9.11813 8.5928 9.16548 8.60227V9.5483C9.12192 9.53314 9.05279 9.51989 8.9581 9.50852C8.86529 9.49527 8.77533 9.48864 8.68821 9.48864C8.50071 9.48864 8.33215 9.52936 8.18253 9.6108C8.0348 9.69034 7.91832 9.80114 7.8331 9.94318C7.74787 10.0852 7.70526 10.2491 7.70526 10.4347V13H6.67685ZM11.5724 13.0852C11.1463 13.0852 10.777 12.9915 10.4645 12.804C10.152 12.6165 9.90956 12.3542 9.73722 12.017C9.56676 11.6799 9.48153 11.286 9.48153 10.8352C9.48153 10.3845 9.56676 9.98958 9.73722 9.65057C9.90956 9.31155 10.152 9.0483 10.4645 8.8608C10.777 8.6733 11.1463 8.57955 11.5724 8.57955C11.9986 8.57955 12.3679 8.6733 12.6804 8.8608C12.9929 9.0483 13.2344 9.31155 13.4048 9.65057C13.5772 9.98958 13.6634 10.3845 13.6634 10.8352C13.6634 11.286 13.5772 11.6799 13.4048 12.017C13.2344 12.3542 12.9929 12.6165 12.6804 12.804C12.3679 12.9915 11.9986 13.0852 11.5724 13.0852ZM11.5781 12.2614C11.8092 12.2614 12.0024 12.1979 12.1577 12.071C12.313 11.9422 12.4285 11.7699 12.5043 11.554C12.5819 11.3381 12.6207 11.0975 12.6207 10.8324C12.6207 10.5653 12.5819 10.3239 12.5043 10.108C12.4285 9.89015 12.313 9.71686 12.1577 9.58807C12.0024 9.45928 11.8092 9.39489 11.5781 9.39489C11.3414 9.39489 11.1444 9.45928 10.9872 9.58807C10.8319 9.71686 10.7154 9.89015 10.6378 10.108C10.562 10.3239 10.5241 10.5653 10.5241 10.8324C10.5241 11.0975 10.562 11.3381 10.6378 11.554C10.7154 11.7699 10.8319 11.9422 10.9872 12.071C11.1444 12.1979 11.3414 12.2614 11.5781 12.2614ZM16.7152 8.63636V9.43182H14.2067V8.63636H16.7152ZM14.826 7.59091H15.8544V11.6875C15.8544 11.8258 15.8752 11.9318 15.9169 12.0057C15.9605 12.0777 16.0173 12.1269 16.0874 12.1534C16.1574 12.1799 16.2351 12.1932 16.3203 12.1932C16.3847 12.1932 16.4434 12.1884 16.4964 12.179C16.5514 12.1695 16.593 12.161 16.6214 12.1534L16.7947 12.9574C16.7398 12.9763 16.6612 12.9972 16.5589 13.0199C16.4586 13.0426 16.3355 13.0559 16.1896 13.0597C15.9321 13.0672 15.7 13.0284 15.4936 12.9432C15.2872 12.8561 15.1233 12.7216 15.0021 12.5398C14.8828 12.358 14.8241 12.1307 14.826 11.858V7.59091ZM19.4318 13.0852C19.0057 13.0852 18.6364 12.9915 18.3239 12.804C18.0114 12.6165 17.7689 12.3542 17.5966 12.017C17.4261 11.6799 17.3409 11.286 17.3409 10.8352C17.3409 10.3845 17.4261 9.98958 17.5966 9.65057C17.7689 9.31155 18.0114 9.0483 18.3239 8.8608C18.6364 8.6733 19.0057 8.57955 19.4318 8.57955C19.858 8.57955 20.2273 8.6733 20.5398 8.8608C20.8523 9.0483 21.0938 9.31155 21.2642 9.65057C21.4366 9.98958 21.5227 10.3845 21.5227 10.8352C21.5227 11.286 21.4366 11.6799 21.2642 12.017C21.0938 12.3542 20.8523 12.6165 20.5398 12.804C20.2273 12.9915 19.858 13.0852 19.4318 13.0852ZM19.4375 12.2614C19.6686 12.2614 19.8617 12.1979 20.017 12.071C20.1723 11.9422 20.2879 11.7699 20.3636 11.554C20.4413 11.3381 20.4801 11.0975 20.4801 10.8324C20.4801 10.5653 20.4413 10.3239 20.3636 10.108C20.2879 9.89015 20.1723 9.71686 20.017 9.58807C19.8617 9.45928 19.6686 9.39489 19.4375 9.39489C19.2008 9.39489 19.0038 9.45928 18.8466 9.58807C18.6913 9.71686 18.5748 9.89015 18.4972 10.108C18.4214 10.3239 18.3835 10.5653 18.3835 10.8324C18.3835 11.0975 18.4214 11.3381 18.4972 11.554C18.5748 11.7699 18.6913 11.9422 18.8466 12.071C19.0038 12.1979 19.2008 12.2614 19.4375 12.2614Z" fill="url(#paint0_linear_9_28)"/>
<path d="M25.7358 8.78125C25.7093 8.53314 25.5975 8.33996 25.4006 8.2017C25.2055 8.06345 24.9517 7.99432 24.6392 7.99432C24.4195 7.99432 24.2311 8.02746 24.0739 8.09375C23.9167 8.16004 23.7964 8.25 23.7131 8.36364C23.6297 8.47727 23.5871 8.60701 23.5852 8.75284C23.5852 8.87405 23.6127 8.97917 23.6676 9.06818C23.7244 9.1572 23.8011 9.23295 23.8977 9.29545C23.9943 9.35606 24.1013 9.4072 24.2188 9.44886C24.3362 9.49053 24.4545 9.52557 24.5739 9.55398L25.1193 9.69034C25.339 9.74148 25.5502 9.81061 25.7528 9.89773C25.9574 9.98485 26.1402 10.0947 26.3011 10.2273C26.464 10.3598 26.5928 10.5199 26.6875 10.7074C26.7822 10.8949 26.8295 11.1146 26.8295 11.3665C26.8295 11.7074 26.7424 12.0076 26.5682 12.267C26.3939 12.5246 26.142 12.7263 25.8125 12.8722C25.4848 13.0161 25.0881 13.0881 24.6222 13.0881C24.1695 13.0881 23.7765 13.018 23.4432 12.8778C23.1117 12.7377 22.8523 12.5331 22.6648 12.2642C22.4792 11.9953 22.3788 11.6676 22.3636 11.2812H23.4006C23.4157 11.4839 23.4782 11.6525 23.5881 11.7869C23.6979 11.9214 23.8409 12.0218 24.017 12.0881C24.1951 12.1544 24.3939 12.1875 24.6136 12.1875C24.8428 12.1875 25.0436 12.1534 25.2159 12.0852C25.3902 12.0152 25.5265 11.9186 25.625 11.7955C25.7235 11.6705 25.7737 11.5246 25.7756 11.358C25.7737 11.2064 25.7292 11.0814 25.642 10.983C25.5549 10.8826 25.4328 10.7992 25.2756 10.733C25.1203 10.6648 24.9384 10.6042 24.7301 10.5511L24.0682 10.3807C23.589 10.2576 23.2102 10.071 22.9318 9.82102C22.6553 9.56913 22.517 9.23485 22.517 8.81818C22.517 8.47538 22.6098 8.17519 22.7955 7.91761C22.983 7.66004 23.2377 7.46023 23.5597 7.31818C23.8816 7.17424 24.2462 7.10227 24.6534 7.10227C25.0663 7.10227 25.428 7.17424 25.7386 7.31818C26.0511 7.46023 26.2964 7.65814 26.4744 7.91193C26.6525 8.16383 26.7443 8.4536 26.75 8.78125H25.7358ZM28.6612 11.6307L28.6584 10.3892H28.8232L30.3913 8.63636H31.593L29.6641 10.7841H29.451L28.6612 11.6307ZM27.7237 13V7.18182H28.7521V13H27.7237ZM30.4624 13L29.0419 11.0142L29.7351 10.2898L31.6925 13H30.4624ZM34.0305 13.0852C33.593 13.0852 33.2152 12.9943 32.897 12.8125C32.5807 12.6288 32.3374 12.3693 32.1669 12.0341C31.9964 11.697 31.9112 11.3002 31.9112 10.8438C31.9112 10.3949 31.9964 10.0009 32.1669 9.66193C32.3393 9.32102 32.5798 9.05587 32.8885 8.86648C33.1972 8.67519 33.5599 8.57955 33.9766 8.57955C34.2455 8.57955 34.4993 8.62311 34.7379 8.71023C34.9785 8.79545 35.1906 8.92803 35.3743 9.10795C35.5599 9.28788 35.7057 9.51705 35.8118 9.79545C35.9179 10.072 35.9709 10.4015 35.9709 10.7841V11.0994H32.3942V10.4062H34.9851C34.9832 10.2093 34.9406 10.0341 34.8572 9.88068C34.7739 9.72538 34.6574 9.60322 34.5078 9.5142C34.3601 9.42519 34.1877 9.38068 33.9908 9.38068C33.7805 9.38068 33.5959 9.43182 33.4368 9.53409C33.2777 9.63447 33.1536 9.76705 33.0646 9.93182C32.9775 10.0947 32.933 10.2737 32.9311 10.4688V11.0739C32.9311 11.3277 32.9775 11.5455 33.0703 11.7273C33.1631 11.9072 33.2929 12.0455 33.4595 12.142C33.6262 12.2367 33.8213 12.2841 34.0447 12.2841C34.1944 12.2841 34.3298 12.2633 34.451 12.2216C34.5722 12.178 34.6773 12.1146 34.7663 12.0312C34.8554 11.9479 34.9226 11.8447 34.968 11.7216L35.9283 11.8295C35.8677 12.0833 35.7521 12.3049 35.5817 12.4943C35.4131 12.6818 35.1972 12.8277 34.9339 12.9318C34.6707 13.0341 34.3696 13.0852 34.0305 13.0852ZM39.0199 8.63636V9.43182H36.5114V8.63636H39.0199ZM37.1307 7.59091H38.1591V11.6875C38.1591 11.8258 38.1799 11.9318 38.2216 12.0057C38.2652 12.0777 38.322 12.1269 38.392 12.1534C38.4621 12.1799 38.5398 12.1932 38.625 12.1932C38.6894 12.1932 38.7481 12.1884 38.8011 12.179C38.8561 12.1695 38.8977 12.161 38.9261 12.1534L39.0994 12.9574C39.0445 12.9763 38.9659 12.9972 38.8636 13.0199C38.7633 13.0426 38.6402 13.0559 38.4943 13.0597C38.2367 13.0672 38.0047 13.0284 37.7983 12.9432C37.5919 12.8561 37.428 12.7216 37.3068 12.5398C37.1875 12.358 37.1288 12.1307 37.1307 11.858V7.59091ZM41.7365 13.0852C41.3009 13.0852 40.9268 12.9896 40.6143 12.7983C40.3037 12.607 40.0642 12.3428 39.8956 12.0057C39.7289 11.6667 39.6456 11.2765 39.6456 10.8352C39.6456 10.392 39.7308 10.0009 39.9013 9.66193C40.0717 9.32102 40.3123 9.05587 40.6229 8.86648C40.9354 8.67519 41.3047 8.57955 41.7308 8.57955C42.085 8.57955 42.3984 8.64489 42.6712 8.77557C42.9458 8.90436 43.1645 9.08712 43.3274 9.32386C43.4903 9.55871 43.5831 9.83333 43.6058 10.1477H42.6229C42.5831 9.9375 42.4884 9.76231 42.3388 9.62216C42.1911 9.48011 41.9931 9.40909 41.745 9.40909C41.5348 9.40909 41.3501 9.46591 41.1911 9.57955C41.032 9.69129 40.9079 9.85227 40.8189 10.0625C40.7318 10.2727 40.6882 10.5246 40.6882 10.8182C40.6882 11.1155 40.7318 11.3712 40.8189 11.5852C40.906 11.7973 41.0282 11.9612 41.1854 12.0767C41.3445 12.1903 41.531 12.2472 41.745 12.2472C41.8965 12.2472 42.032 12.2187 42.1513 12.1619C42.2725 12.1032 42.3738 12.0189 42.4553 11.9091C42.5367 11.7992 42.5926 11.6657 42.6229 11.5085H43.6058C43.5812 11.8172 43.4903 12.0909 43.3331 12.3295C43.1759 12.5663 42.9619 12.7519 42.6911 12.8864C42.4202 13.0189 42.102 13.0852 41.7365 13.0852ZM45.4787 10.4432V13H44.4503V7.18182H45.456V9.37784H45.5071C45.6094 9.13163 45.7675 8.9375 45.9815 8.79545C46.1974 8.65152 46.4721 8.57955 46.8054 8.57955C47.1084 8.57955 47.3726 8.64299 47.598 8.76989C47.8234 8.89678 47.9976 9.08239 48.1207 9.3267C48.2457 9.57102 48.3082 9.86932 48.3082 10.2216V13H47.2798V10.3807C47.2798 10.0871 47.2041 9.8589 47.0526 9.69602C46.9029 9.53125 46.6927 9.44886 46.4219 9.44886C46.2401 9.44886 46.0772 9.48864 45.9332 9.56818C45.7912 9.64583 45.6795 9.75852 45.598 9.90625C45.5185 10.054 45.4787 10.233 45.4787 10.4432Z" fill="url(#paint1_linear_9_28)"/>
<g clip-path="url(#clip0_9_28)">
<g clip-path="url(#clip1_9_28)">
<g clip-path="url(#clip2_9_28)">
<g clip-path="url(#clip3_9_28)">
<g clip-path="url(#clip4_9_28)">
<g clip-path="url(#clip5_9_28)">
<g clip-path="url(#clip6_9_28)">
<g clip-path="url(#clip7_9_28)">
<path d="M51.2601 12.4134C52.3935 11.2316 53.518 10.0407 54.6337 8.84053L55.4771 7.94044L55.894 7.48852L55.9205 7.46105C55.9506 7.38615 55.8555 7.62584 55.9892 7.29252V7.27379L55.9868 7.25631V7.17018C55.9837 7.11246 55.9777 7.05495 55.9687 6.9979C55.953 6.88357 55.928 6.77082 55.894 6.66083C55.7648 6.22409 55.5119 5.83764 55.1682 5.5516C54.8244 5.26556 54.4057 5.09312 53.9662 5.05664C53.8457 5.05664 53.7494 5.11781 53.7506 5.20021C53.7126 5.17488 53.6669 5.16507 53.6224 5.17268C53.5779 5.1803 53.5377 5.20479 53.5096 5.2414L53.4855 5.26387C51.9103 6.78609 50.3533 8.32411 48.8142 9.87795C48.779 9.91167 48.7536 9.9549 48.7407 10.0028L48.0419 12.793C48.0293 12.8441 48.0293 12.8978 48.0419 12.949C48.0517 12.9896 48.069 13.0278 48.093 13.0614C48.117 13.095 48.1471 13.1234 48.1817 13.145C48.2162 13.1666 48.2546 13.1809 48.2945 13.1871C48.3344 13.1933 48.3751 13.1913 48.4142 13.1812L51.1155 12.4996C51.1705 12.4852 51.2205 12.4554 51.2601 12.4134ZM49.1371 12.0489C49.1028 12.0153 49.0619 11.9898 49.0172 11.9741C48.9725 11.9584 48.9251 11.9528 48.8781 11.9578L49.26 10.3161C49.6226 10.4382 49.9527 10.6458 50.2246 10.9227C50.4964 11.1996 50.7024 11.5381 50.8264 11.9116L49.2396 12.3211C49.2424 12.2707 49.2348 12.2203 49.2171 12.1734C49.1994 12.1264 49.1721 12.0839 49.1371 12.0489ZM52.8108 6.41864C53.1754 6.51865 53.513 6.70401 53.7975 6.96044C52.5972 7.96735 51.5035 9.10352 50.5348 10.3498C50.2596 10.1146 49.9251 9.96605 49.5709 9.92164C50.6585 8.7623 51.7384 7.59463 52.8108 6.41864ZM51.195 11.5783C51.1473 11.2236 51.0065 10.8893 50.7878 10.612C51.9907 9.60831 53.0872 8.47507 54.059 7.23135C54.287 7.50336 54.4573 7.82191 54.559 8.1664L54.2578 8.46601C53.2297 9.49635 52.2087 10.5338 51.195 11.5783ZM53.6975 5.44989C53.7205 5.42684 53.7385 5.39901 53.7503 5.36824C53.7622 5.33747 53.7676 5.30446 53.7662 5.27136C53.7852 5.29667 53.809 5.31762 53.8361 5.33288C53.8633 5.34813 53.8933 5.35737 53.9241 5.36C53.9333 5.3587 53.9426 5.3587 53.9518 5.36C54.3159 5.41509 54.6559 5.5813 54.9284 5.83745C55.2009 6.09359 55.3936 6.42805 55.4819 6.79815C55.5038 6.88796 55.5191 6.97936 55.5277 7.07155C55.5302 7.11313 55.5302 7.15482 55.5277 7.19639L55.1193 7.60212L54.9108 7.8106C54.8679 7.34574 54.664 6.9127 54.3369 6.59144C54.0098 6.27019 53.5816 6.08243 53.1313 6.06285C53.3228 5.85811 53.512 5.65462 53.6975 5.44989Z" fill="#CEB700"/>
</g>
</g>
</g>
</g>
</g>
</g>
</g>
</g>
<defs>
<linearGradient id="paint0_linear_9_28" x1="11.5" y1="5" x2="11.5" y2="15" gradientUnits="userSpaceOnUse">
<stop stop-color="#29F4C3"/>
<stop offset="1" stop-color="#6C82AD"/>
</linearGradient>
<linearGradient id="paint1_linear_9_28" x1="35.5" y1="5" x2="35.5" y2="15" gradientUnits="userSpaceOnUse">
<stop stop-color="#43D9FA"/>
<stop offset="1" stop-color="#666666"/>
</linearGradient>
<clipPath id="clip0_9_28">
<rect width="8" height="8.28906" fill="white" transform="translate(48 5)"/>
</clipPath>
<clipPath id="clip1_9_28">
<rect width="7.95675" height="8.13397" fill="white" transform="translate(48.0324 5.05664)"/>
</clipPath>
<clipPath id="clip2_9_28">
<rect width="7.95675" height="8.13397" fill="white" transform="translate(48.0324 5.05664)"/>
</clipPath>
<clipPath id="clip3_9_28">
<rect width="7.95675" height="8.13397" fill="white" transform="translate(48.0324 5.05664)"/>
</clipPath>
<clipPath id="clip4_9_28">
<rect width="7.95675" height="8.13397" fill="white" transform="translate(48.0324 5.05664)"/>
</clipPath>
<clipPath id="clip5_9_28">
<rect width="7.95675" height="8.13397" fill="white" transform="translate(48.0324 5.05664)"/>
</clipPath>
<clipPath id="clip6_9_28">
<rect width="7.95675" height="8.13397" fill="white" transform="translate(48.0324 5.05664)"/>
</clipPath>
<clipPath id="clip7_9_28">
<rect width="7.95675" height="8.13397" fill="white" transform="translate(48.0324 5.05664)"/>
</clipPath>
</defs>
</svg>
